<svg width="12" height="12" viewBox="0 0 12 12" fill="none" xmlns="http://www.w3.org/2000/svg">
<path d="M5.23017 1.59386H0.759356C0.54815 1.59386 0.368994 1.51736 0.221889 1.36435C0.073963 1.21133 0 1.02517 0 0.805856C0 0.586541 0.073963 0.397828 0.221889 0.239717C0.369816 0.0799058 0.548972 0 0.759356 0H11.2419C11.4523 0 11.6314 0.0765051 11.7793 0.229516C11.9264 0.382526 12 0.56869 12 0.788005C12 1.00732 11.926 1.19603 11.7781 1.35414C11.631 1.51395 11.4523 1.59386 11.2419 1.59386H6.77107V11.2158C6.77107 11.4334 6.6971 11.6187 6.54918 11.7718C6.40125 11.9239 6.22127 12 6.00925 12C5.79722 12 5.61436 11.9214 5.46068 11.7641C5.307 11.6068 5.23017 11.4156 5.23017 11.1903V1.59386Z" fill="#5B5F6E"/>
</svg>
